# xmcd
# Track frame offsets:
# 150
# 10990
# 26543
# 45433
# 55216
# 67680
# 75918
# 85588
# 96357
# 106384
# 121470
# 134780
# 146401
# 158875
#
# Disc length: 2266 seconds
# Revision: 0
# Processed by: cddbd v1.4PL0 Copyright (c) Steve Scherf et al.
# Submitted via: VisiTrax 2.9.5.180 - For more info visit www.synapsa.com
#
DISCID=ac08d80e
DTITLE=Sheila Barry - Country Homecoming
DYEAR=1900
DGENRE=
TTITLE0=Could that someone be you
TTITLE1=The Belfast waltz
TTITLE2=Radioland
TTITLE3=The violet and the rose
TTITLE4=What part of no don't you understand
TTITLE5=Do you still love me
TTITLE6=If I could hear my mother pray again
TTITLE7=The old spinning wheel
TTITLE8=We had some good times
TTITLE9=The road to Mallinmore
TTITLE10=If I were only her
TTITLE11=First lady
TTITLE12=Sunday every day
TTITLE13=I've cried my last tear for you
EXTD=
EXTT0=
EXTT1=
EXTT2=
EXTT3=
EXTT4=
EXTT5=
EXTT6=
EXTT7=
EXTT8=
EXTT9=
EXTT10=
EXTT11=
EXTT12=
EXTT13=
PLAYORDER=
